<svg width="10" height="12" viewBox="0 0 10 12" fill="none" xmlns="http://www.w3.org/2000/svg">
<path d="M1.66663 12H2.99996V9.33335H1.66663V12Z" fill="#3A4466"/>
<path d="M1.66663 2.66668H2.99996V1.28746e-05H1.66663V2.66668Z" fill="#3A4466"/>
<path d="M1.66659 9.33335H0.333252V12H1.66659V9.33335Z" fill="#5A6988"/>
<path d="M7 9.33335V12H9.66667V9.33335H7Z" fill="#5A6988"/>
<path d="M3 9.33335V12H5.66667V9.33335H3Z" fill="#5A6988"/>
<path d="M5.66667 1.28746e-05H3V2.66668H5.66667V1.28746e-05Z" fill="#5A6988"/>
<path d="M1.66659 1.28746e-05H0.333252V2.66668H1.66659V1.28746e-05Z" fill="#5A6988"/>
<path d="M7 1.28746e-05V2.66668H9.66667V1.28746e-05H7Z" fill="#5A6988"/>
<path d="M7 9.33335V8.00002H5.66667V6.66668H4.33333V8.00002H3V9.33335H7Z" fill="#FEAE34"/>
<path d="M7 5.33335V4.00002H3V5.33335H7Z" fill="#FEAE34"/>
<path d="M5.66663 12H6.99996V9.33335H5.66663V12Z" fill="#8B9BB4"/>
<path d="M5.66663 2.66668H6.99996V1.28746e-05H5.66663V2.66668Z" fill="#8B9BB4"/>
</svg>
