<svg width="10" height="10" viewBox="0 0 10 10" fill="none" xmlns="http://www.w3.org/2000/svg">
<path d="M1.33337 8.00001V9.33334H8.00004V8.00001H1.33337Z" fill="#124E89"/>
<path d="M8 8H9.33333V6.66667H8V8Z" fill="#124E89"/>
<path d="M0 6.66667V8H1.33333V6.66667H0Z" fill="#124E89"/>
<path d="M5.33337 6.66666H6.66671V3.99999H5.33337V6.66666Z" fill="#124E89"/>
<path d="M4.00008 3.99999H2.66675V6.66666H4.00008V3.99999Z" fill="#124E89"/>
<path d="M5.33333 2.66667H4V4H5.33333V2.66667Z" fill="#124E89"/>
<path d="M6.66671 1.33332H5.33337V2.66666H6.66671V1.33332Z" fill="#124E89"/>
<path d="M2.66675 1.33332V2.66666H4.00008V1.33332H2.66675Z" fill="#124E89"/>
<path d="M6.66667 2.66667H5.33333V4H6.66667V6.66667H5.33333V4H4V6.66667H2.66667V4H4V2.66667H2.66667V1.33333H4V2.66667H5.33333V1.33333H6.66667V2.66667ZM8 -4.17233e-07H1.33333V1.33333H0V6.66667H1.33333V8H8V6.66667H9.33333V1.33333H8V-4.17233e-07Z" fill="#0099DB"/>
</svg>
